<?xml version="1.0" encoding="utf-8"?>
<!-- Generator: Adobe Illustrator 27.2.0, SVG Export Plug-In . SVG Version: 6.00 Build 0)  -->
<svg version="1.1" id="Capa_1" xmlns="http://www.w3.org/2000/svg" xmlns:xlink="http://www.w3.org/1999/xlink" x="0px" y="0px"
	 viewBox="0 0 574 500" style="enable-background:new 0 0 574 500;" xml:space="preserve">
<style type="text/css">
	.st0{fill:none;stroke:#9B9B9B;stroke-miterlimit:10;}
	.st1{fill:none;stroke:#00257F;stroke-miterlimit:10;}
</style>
<g>
	<polygon class="st0" points="343.6,301.8 400.7,400.7 343.6,499.6 229.4,499.6 172.3,400.7 229.4,301.8 	"/>
	<polygon class="st0" points="172.1,202.6 229.2,301.5 172.1,400.4 57.9,400.4 0.8,301.5 57.9,202.6 	"/>
	<polygon class="st0" points="516.7,2.8 573.8,101.8 516.7,200.7 402.5,200.7 345.4,101.8 402.5,2.8 	"/>
	<polygon class="st0" points="171.4,4.6 228.5,103.5 171.4,202.4 57.2,202.4 0,103.5 57.2,4.6 	"/>
	<polygon class="st1" points="343.9,102.7 401.1,201.6 343.9,300.5 229.7,300.5 172.6,201.6 229.7,102.7 	"/>
</g>
</svg>
