<?xml version="1.0" encoding="utf-8"?>
<!-- Generator: Adobe Illustrator 27.2.0, SVG Export Plug-In . SVG Version: 6.00 Build 0)  -->
<svg version="1.1" id="Capa_1" xmlns="http://www.w3.org/2000/svg" xmlns:xlink="http://www.w3.org/1999/xlink" x="0px" y="0px"
	 viewBox="0 0 574 500" style="enable-background:new 0 0 574 500;" xml:space="preserve">
<style type="text/css">
	.st0{fill:none;stroke:#9B9B9B;stroke-miterlimit:10;}
	.st1{fill:none;stroke:#00257F;stroke-miterlimit:10;}
</style>
<g>
	<polygon class="st0" points="343.6,200.6 400.7,101.7 343.6,2.8 229.4,2.8 172.3,101.7 229.4,200.6 	"/>
	<polygon class="st0" points="172.1,299.8 229.2,200.9 172.1,102 57.9,102 0.8,200.9 57.9,299.8 	"/>
	<polygon class="st0" points="516.7,499.6 573.8,400.6 516.7,301.7 402.5,301.7 345.4,400.6 402.5,499.6 	"/>
	<polygon class="st0" points="171.4,497.8 228.5,398.9 171.4,300 57.2,300 0,398.9 57.2,497.8 	"/>
	<polygon class="st1" points="343.9,399.7 401.1,300.8 343.9,201.9 229.7,201.9 172.6,300.8 229.7,399.7 	"/>
</g>
</svg>
