<?xml version="1.0" encoding="utf-8"?>
<!-- Generator: Adobe Illustrator 27.2.0, SVG Export Plug-In . SVG Version: 6.00 Build 0)  -->
<svg version="1.1" id="Capa_1" xmlns="http://www.w3.org/2000/svg" xmlns:xlink="http://www.w3.org/1999/xlink" x="0px" y="0px"
	 viewBox="0 0 574 500" style="enable-background:new 0 0 574 500;" xml:space="preserve">
<style type="text/css">
	.st0{fill:none;stroke:#9B9B9B;stroke-miterlimit:10;}
	.st1{fill:none;stroke:#00257F;stroke-miterlimit:10;}
</style>
<g>
	<polygon class="st0" points="230.2,200.6 173.1,101.7 230.2,2.8 344.4,2.8 401.5,101.7 344.4,200.6 	"/>
	<polygon class="st0" points="401.7,299.8 344.6,200.9 401.7,102 515.9,102 573,200.9 515.9,299.8 	"/>
	<polygon class="st0" points="57.1,499.6 0,400.6 57.1,301.7 171.3,301.7 228.4,400.6 171.3,499.6 	"/>
	<polygon class="st0" points="402.4,497.8 345.3,398.9 402.4,300 516.6,300 573.8,398.9 516.6,497.8 	"/>
	<polygon class="st1" points="229.9,399.7 172.7,300.8 229.9,201.9 344.1,201.9 401.2,300.8 344.1,399.7 	"/>
</g>
</svg>
