<?xml version="1.0" encoding="utf-8"?>
<!-- Generator: Adobe Illustrator 27.2.0, SVG Export Plug-In . SVG Version: 6.00 Build 0)  -->
<svg version="1.1" id="Capa_1" xmlns="http://www.w3.org/2000/svg" xmlns:xlink="http://www.w3.org/1999/xlink" x="0px" y="0px"
	 viewBox="0 0 36 22" style="enable-background:new 0 0 36 22;" xml:space="preserve">
<style type="text/css">
	.st0{fill:#F7F7F8;}
</style>
<g>
	<g>
		<g>
			<path class="st0" d="M9.1,6.8C8.7,7.6,8.3,8.6,8.2,9.6c-0.4,2.5,0.1,4.9,1.2,6.9l7.2-8.4L9.1,6.8z"/>
			<path class="st0" d="M17.7,1.1C14.2,1.3,11,3.3,9.3,6.3l11,1.9L17.7,1.1z"/>
			<path class="st0" d="M27.4,15.9c0.4-0.9,0.8-1.8,0.9-2.8c0.4-2.5-0.1-4.9-1.2-6.9L20,14.6L27.4,15.9z"/>
			<path class="st0" d="M26.9,5.8c-1.5-2.3-3.9-4-6.8-4.5c-0.6-0.1-1.2-0.2-1.8-0.2L22,11.6L26.9,5.8z"/>
			<path class="st0" d="M9.7,16.9c1.5,2.3,3.9,4,6.8,4.5c0.7,0.1,1.3,0.2,2,0.2l-3.9-10.5L9.7,16.9z"/>
			<path class="st0" d="M18.9,21.6c3.5-0.2,6.6-2.2,8.3-5.2l-10.9-1.9L18.9,21.6z"/>
		</g>
	</g>
	<g>
		<g>
			<path class="st0" d="M28.7,20.6H25v-0.4h3.7c3.1,0,5.7-2.5,5.7-5.7V8.1c0-3.1-2.5-5.7-5.7-5.7H25V2.1h3.7c3.3,0,6,2.7,6,6v6.5
				C34.7,17.9,32,20.6,28.7,20.6z"/>
		</g>
		<g>
			<path class="st0" d="M11,20.6H7.3c-3.3,0-6-2.7-6-6V8.1c0-3.3,2.7-6,6-6H11v0.4H7.3C4.2,2.4,1.6,5,1.6,8.1v6.5
				c0,3.1,2.5,5.7,5.7,5.7H11V20.6z"/>
		</g>
	</g>
	<g>
		<path class="st0" d="M9.4,1.9H6.3c-0.4,0-0.7-0.3-0.7-0.7V1.1c0-0.4,0.3-0.7,0.7-0.7h3.1c0.4,0,0.7,0.3,0.7,0.7v0.1
			C10.1,1.6,9.8,1.9,9.4,1.9z M6.3,0.8c-0.2,0-0.3,0.2-0.3,0.3v0.1c0,0.2,0.2,0.3,0.3,0.3h3.1c0.2,0,0.3-0.2,0.3-0.3V1.1
			c0-0.2-0.2-0.3-0.3-0.3H6.3z"/>
	</g>
</g>
</svg>
