<?xml version="1.0" encoding="utf-8"?>
<!-- Generator: Adobe Illustrator 27.2.0, SVG Export Plug-In . SVG Version: 6.00 Build 0)  -->
<svg version="1.1" id="e66b07b7-47ce-4149-8e6a-5b9b2a1089ed"
	 xmlns="http://www.w3.org/2000/svg" xmlns:xlink="http://www.w3.org/1999/xlink" x="0px" y="0px" viewBox="0 0 1260.3 467"
	 style="enable-background:new 0 0 1260.3 467;" xml:space="preserve">
<style type="text/css">
	.st0{fill:#FFFFFF;stroke:#000000;stroke-width:3;stroke-miterlimit:10;}
	.st1{fill:none;stroke:#000000;stroke-width:3;stroke-miterlimit:10;}
</style>
<g>
	<path class="st0" d="M506.3,177.8c-0.5-0.8-1.3-1.3-2.2-1.4h-1.3c-0.9,0.2-1.7,0.7-2.2,1.4l-39.9,87.5c-0.6,1.1-0.2,2.5,0.9,3.1
		c0.4,0.2,0.8,0.3,1.3,0.3h8.2c1.3,0,2.5-0.7,3-1.9c2.6-6,5.3-11.8,7.9-17.8h42.5l8.1,17.8c0.5,1.2,1.7,2,3,1.9h8.2
		c1.3,0.1,2.4-0.9,2.5-2.1c0-0.4-0.1-0.9-0.3-1.3L506.3,177.8z M487.1,237.8l15.9-35.6h0.6l16,35.6L487.1,237.8L487.1,237.8z"/>
	<path class="st0" d="M635.1,177.7h-8.7c-1.4,0-2.5,1.1-2.5,2.5v54c0,12.9-8.5,22.9-21.9,22.9c-13.3,0-21.6-10.2-21.6-23.2v-53.7
		c0-1.4-1.1-2.5-2.5-2.5h-8.7c-1.4,0.1-2.4,1.1-2.5,2.5v54.6c0,19.8,14.8,35.2,35.2,35.2c20.5,0,35.5-15.5,35.5-35.2v-54.6
		C637.5,178.9,636.5,177.8,635.1,177.7C635.2,177.7,635.2,177.7,635.1,177.7z"/>
	<path class="st0" d="M694.3,216.3c-10.8-4.4-16.5-9-16.5-16.4c0-4.8,3.8-11.7,14.7-11.7c7.6,0,16.7,6,17.6,6.5
		c1.8,1.2,3.5,0.4,4.5-1.3c1-1.6,2.2-3.4,3.3-4.9c1-1.3,0.8-3.2-0.5-4.2c-0.1-0.1-0.2-0.1-0.3-0.2c-7.1-4.9-15.5-7.5-24.1-7.7
		c-20.7,0-28.5,13.9-28.5,24.1c0,15.1,10.4,22,23.7,27.6c12.9,5.3,19.6,10.3,19.6,18.1c0,6.6-5.7,12.1-14.7,12.1
		c-10,0-20-8.3-20.8-9c-1.4-1.2-3.2-0.7-4.4,1s-2.2,3.6-3.4,5.3c-1.3,2.2-0.4,3.1,0.8,4.2c7.8,6.7,17.7,10.4,28,10.3
		c16.9,0,29-11,29-24.6C722.2,229.6,709.4,222.4,694.3,216.3z"/>
	<path class="st0" d="M812.1,177.7h-65.4c-1.4,0-2.5,1.1-2.5,2.5v7.3c0,1.4,1.1,2.5,2.4,2.5c0,0,0,0,0.1,0h25.9v76.3
		c0.1,1.4,1.1,2.4,2.5,2.5h8.6c1.4-0.1,2.4-1.1,2.5-2.5V190h25.9c1.4,0,2.5-1.1,2.5-2.5v-7.3C814.6,178.9,813.6,177.7,812.1,177.7
		C812.2,177.7,812.2,177.7,812.1,177.7z"/>
	<path class="st0" d="M907.1,205.5c0-15.5-12.7-27.8-28.4-27.8h-35.3c-1.4,0-2.5,1.1-2.5,2.5v86.1c0,1.4,1.1,2.5,2.4,2.5
		c0,0,0,0,0.1,0h8.5c1.4-0.1,2.4-1.1,2.5-2.5v-33.2H874l17.3,34.5c0.4,0.7,1.2,1.2,2.1,1.2h10.1c1.4,0.1,2.5-1,2.6-2.4
		c0-0.5-0.1-1-0.4-1.4l-17.8-33C899.2,227.4,907.1,217.5,907.1,205.5z M877.7,221.9h-23.2v-31.6h23.2c8.5,0,15.9,7,15.9,15.5
		C893.6,214.6,886.5,221.8,877.7,221.9z"/>
	<path class="st0" d="M974.8,177.8c-0.5-0.8-1.3-1.3-2.2-1.4h-1.3c-0.9,0.2-1.7,0.7-2.2,1.4l-39.9,87.5c-0.6,1.1-0.2,2.5,0.9,3.1
		c0.4,0.2,0.8,0.3,1.3,0.3h8.2c1.3,0,2.5-0.7,3-1.9c2.6-6,5.3-11.8,7.9-17.8H993l8.1,17.8c0.5,1.2,1.7,2,3,1.9h8.2
		c1.3,0.1,2.4-0.9,2.5-2.1c0-0.4-0.1-0.9-0.3-1.3L974.8,177.8z M955.5,237.8l15.9-35.6h0.7l16,35.6L955.5,237.8L955.5,237.8z"/>
	<path class="st0" d="M1093,256.6h-38.8v-76.4c-0.1-1.4-1.1-2.4-2.5-2.5h-8.6c-1.4,0-2.5,1.1-2.5,2.5v86.1c0,1.4,1.1,2.5,2.4,2.5
		c0,0,0,0,0.1,0h49.8c1.4,0,2.5-1.1,2.5-2.5v-7.1C1095.5,257.9,1094.4,256.7,1093,256.6C1093.1,256.6,1093,256.6,1093,256.6z"/>
	<path class="st0" d="M1132.5,177.7h-8.6c-1.4,0.1-2.4,1.1-2.5,2.5v86.1c0.1,1.4,1.1,2.4,2.5,2.5h8.6c1.4-0.1,2.4-1.1,2.5-2.5v-86.1
		C1134.9,178.9,1133.9,177.8,1132.5,177.7z"/>
	<path class="st0" d="M1246.5,265.3l-39.7-87.5c-0.5-0.8-1.3-1.3-2.2-1.4h-1.3c-0.9,0.2-1.7,0.7-2.2,1.4l-39.9,87.5
		c-0.6,1.1-0.2,2.5,0.9,3.1c0.4,0.2,0.8,0.3,1.3,0.3h8.2c1.3,0,2.5-0.7,3-1.9c2.6-6,5.3-11.8,7.9-17.8h42.5l8.1,17.8
		c0.5,1.2,1.7,2,3,1.9h8.2c1.3,0.1,2.4-0.9,2.5-2.1C1246.8,266.1,1246.7,265.7,1246.5,265.3z M1187.6,237.8l15.9-35.6h0.7l16,35.6
		L1187.6,237.8L1187.6,237.8z"/>
</g>
<g>
	<path class="st1" d="M252.3,267.7c-2.1-2-8.5-6.8-25.7-10.8c-5.1,6.8-20,16.2-40.6,28.8c-17.2,10.5-52.9,28-52.9,28
		s-43.4,21-57.6,33.4c-29.1,25.4-20.8,49.1-15.5,49.1c4.9,0,13.5-15.7,37.9-34.2c34.8-26.5,75.6-49.5,123.6-67.9
		c9.9-3.8,31.8-10.3,37.2-11.8c-0.2-5.3-2.3-10.3-5.9-14.1L252.3,267.7z"/>
	<path class="st1" d="M397.8,93.9c3.4-8.8,4.6-12.8-0.9-15.2c-4.6-2-12.5-4.2-13.6-2.9C381.7,78,395.3,92.3,397.8,93.9z"/>
	<path class="st1" d="M354.8,217.6c-0.4-16.8-8.2-32.5-21.3-43c-1.5-1.2-3-2.3-4.6-3.3c-8.4-5.4-18.2-8.5-28.2-8.8
		c-30.8-1.1-57.4,23.4-58,54.6c-0.5,24.2,12.3,36.9,17.7,42.3l0.5,0.5c11.9,12,15.9,38.2-9.7,53.8c32.5-18.5,75.6-38.7,98.6-65.4
		c0-0.1,0-0.1,0.1-0.2C350.8,245.7,355.1,231.6,354.8,217.6z"/>
	<path class="st1" d="M225.8,177.3c-19.3,12.2-59.1,30.1-112,15.8C49.9,175.7,10.4,103.4,7.5,98.6c-4.8-8-9.5-6.1-6.7,2.7
		c2.8,8.9,17.8,50,49.8,80.2c31.5,29.8,74.8,52.3,137.1,58.3c52.7,3.6,68.1,15.1,72.7,19.5c-5.4-5.4-18.2-18.1-17.7-42.3
		c0.6-31.2,27.2-55.7,58-54.6c10,0.4,19.8,3.4,28.2,8.8l-0.2-0.2C308.9,157.4,264.3,153.6,225.8,177.3z"/>
	<path class="st1" d="M251.3,313.7c-8.3,4.8-52.7,32.4-54.4,33.4l0,0c-33.7,20-64,34.1-100.8,71.1c-20.7,20.8-16.9,49.6-11.3,49.6
		c5.5,0,18.1-17.8,41.3-39.7c52.3-49.3,133.8-88.2,169-112.5c22.4-15.3,44.1-37.5,54.8-67.4C326.9,275.1,283.8,295.2,251.3,313.7z"
		/>
	<path class="st1" d="M457.7,79.4c-4.8-1.8-24.1-4.2-38-5.7c-5.4-4.8-17.9-13.4-20.5-11.9c-2.7,1.5,8.6,17.6,10,20.9
		c-1.3,7.7-3.9,15.1-7.9,21.8c-21.6,37.1-60,34.4-64.1,34.5c15,0.3,56.8,1.4,86.3-22.9c2.3-2,4.6-4.1,6.8-6.3
		c6.4-6.9,14.7-11.7,23.9-13.8C460.7,94,462.5,81.2,457.7,79.4z"/>
	<path class="st1" d="M397.9,179.7L397.9,179.7c1.2,6.7,6.4,29.5,4.1,40.5c-2.8,13.3,10.1,7.9,12.6-10c1.7-12.4,1.9-44.4,1.9-44.4
		c0.1-19.7,2.2-29.6,4.9-38.6C415.8,140.5,408.3,159.4,397.9,179.7z"/>
	<path class="st1" d="M223.8,162.8c14.2-9.8,35.7-24.6,66-32.1c3.4-0.8,6.8-1.6,10.3-2.1c16.1-44.4-6.9-93.4-51.3-109.5
		S155.4,26,139.3,70.4c-16,44.1,6.6,92.8,50.5,109.2c10.2-3.2,20-7.7,29-13.4C220.2,165.3,221.9,164.1,223.8,162.8z"/>
	<path class="st1" d="M423.5,116.2c-29.5,24.3-71.4,23.2-86.3,22.9c-5.8-0.1-26.8,0.1-44.2,4.4c-31.9,7.9-53.3,24.6-67.2,33.9
		c38.5-23.7,83.2-19.9,102.9-6.2c0.1,0,0.1,0.1,0.2,0.2c1.6,1,3.1,2.1,4.6,3.3c13.2,10.4,21,26.2,21.3,43c0.3,14.1-4,28.1-4.8,30.5
		v0.1c20.6-20.6,36.1-45.4,47.9-68.5c10.4-20.3,17.9-39.2,23.5-52.4c3.7-8.8,6.6-15,8.9-17.5C428.1,112.1,425.8,114.2,423.5,116.2z"
		/>
</g>
</svg>
