<?xml version="1.0" encoding="utf-8"?>
<!-- Generator: Adobe Illustrator 27.2.0, SVG Export Plug-In . SVG Version: 6.00 Build 0)  -->
<svg version="1.1" id="Capa_1" xmlns:sketch="http://www.bohemiancoding.com/sketch/ns"
	 xmlns="http://www.w3.org/2000/svg" xmlns:xlink="http://www.w3.org/1999/xlink" x="0px" y="0px" viewBox="0 0 800 800"
	 style="enable-background:new 0 0 800 800;" xml:space="preserve">
<style type="text/css">
	.st0{fill-rule:evenodd;clip-rule:evenodd;fill:#FFFFFF;}
</style>
<g id="Page-1" sketch:type="MSPage">
	<g id="Icon-Set" transform="translate(-152.000000, -1087.000000)" sketch:type="MSLayerGroup">
		<path id="chevron-up-circle" sketch:type="MSShapeGroup" class="st0" d="M552,1517.6c-16.9,0-30.6-13.7-30.6-30.6
			s13.7-30.6,30.6-30.6s30.6,13.7,30.6,30.6S568.9,1517.6,552,1517.6L552,1517.6z M552,1452c-19.3,0-35,15.7-35,35s15.7,35,35,35
			s35-15.7,35-35S571.3,1452,552,1452L552,1452z M553.9,1477.1c-0.5-0.5-1.2-0.7-1.9-0.5c-0.7-0.1-1.4,0-1.9,0.5l-16.7,16.8
			c-0.9,0.9-0.9,2.3,0,3.1c0.9,0.9,2.2,0.9,3.1,0l15.6-15.6l15.6,15.6c0.9,0.9,2.2,0.9,3.1,0c0.9-0.9,0.9-2.3,0-3.1L553.9,1477.1
			L553.9,1477.1z"/>
	</g>
</g>
</svg>
