<?xml version="1.0" encoding="utf-8"?>
<!-- Generator: Adobe Illustrator 27.2.0, SVG Export Plug-In . SVG Version: 6.00 Build 0)  -->
<svg version="1.1" id="Capa_1" xmlns="http://www.w3.org/2000/svg" xmlns:xlink="http://www.w3.org/1999/xlink" x="0px" y="0px"
	 viewBox="0 0 100 100" style="enable-background:new 0 0 100 100;" xml:space="preserve">
<path d="M99.6,37.4L85.9,15.8c-0.4-0.7-1.2-1.1-1.9-1.1H50c-1.3,0-2.3,1-2.3,2.3c0,1.3,1,2.3,2.3,2.3h32.7l12.1,19L71,63.8
	L23.3,15.5c-0.4-0.4-1-0.7-1.6-0.7c-0.1,0-0.1,0-0.2,0c-0.1,0-0.1,0-0.2,0h-6.5c-0.8,0-1.6,0.4-2,1.2L0.3,37.5
	c-0.5,0.9-0.4,2,0.3,2.7l47.9,50.8c0.4,0.4,1,0.7,1.6,0.7c0.1,0,0.1,0,0.2,0c0.6,0,1.1-0.3,1.6-0.7l47.5-50.8
	C100.1,39.5,100.2,38.3,99.6,37.4z M20.6,19.4l47.2,47.8L50.2,86.1l-45-47.8L16,19.4H20.6z"/>
</svg>
