<?xml version="1.0" standalone="no"?>
<!DOCTYPE svg PUBLIC "-//W3C//DTD SVG 20010904//EN"
 "http://www.w3.org/TR/2001/REC-SVG-20010904/DTD/svg10.dtd">
<svg version="1.0" xmlns="http://www.w3.org/2000/svg"
 width="500.000000pt" height="500.000000pt" viewBox="0 0 500.000000 500.000000"
 preserveAspectRatio="xMidYMid meet">

<g transform="translate(0.000000,500.000000) scale(0.100000,-0.100000)"
fill="#ffffff" stroke="none">
<path d="M2230 4434 c-423 -57 -815 -252 -1123 -558 -278 -277 -458 -610 -544
-1005 -26 -119 -28 -140 -28 -386 0 -231 3 -272 23 -372 81 -402 260 -741 537
-1018 387 -388 863 -586 1408 -585 373 1 698 91 1016 282 302 181 582 483 740
797 276 548 281 1195 15 1749 -252 524 -729 911 -1300 1056 -216 55 -514 71
-744 40z m428 -104 c631 -49 1214 -444 1501 -1016 133 -265 194 -528 195 -829
0 -183 -14 -302 -55 -465 -63 -246 -135 -396 -326 -676 -36 -52 -209 -229
-292 -298 -486 -405 -1152 -531 -1761 -335 -118 38 -329 140 -435 209 -146 96
-291 223 -398 350 -219 259 -356 545 -420 880 -29 153 -31 492 -4 640 72 388
238 712 505 984 400 408 917 601 1490 556z"/>
<path d="M2443 4203 c-7 -2 -13 -16 -13 -29 0 -19 5 -24 24 -24 28 0 42 26 25
46 -12 15 -16 16 -36 7z"/>
<path d="M2587 4188 c-6 -18 11 -48 28 -48 17 0 34 30 28 48 -3 6 -15 12 -28
12 -13 0 -25 -6 -28 -12z"/>
<path d="M2274 4175 c-4 -9 -2 -21 4 -27 16 -16 47 -5 47 17 0 26 -42 34 -51
10z"/>
<path d="M2746 4171 c-11 -18 6 -41 30 -41 19 0 24 5 24 25 0 20 -5 25 -24 25
-14 0 -27 -4 -30 -9z"/>
<path d="M2120 4155 c-11 -13 -11 -19 3 -32 21 -21 49 -9 45 19 -4 28 -30 35
-48 13z"/>
<path d="M2907 4144 c-12 -13 -8 -42 8 -48 25 -9 46 5 43 28 -3 21 -37 34 -51
20z"/>
<path d="M1973 4123 c-15 -6 -17 -39 -3 -48 17 -11 50 5 50 25 0 14 -23 34
-33 29 -1 0 -8 -3 -14 -6z"/>
<path d="M3053 4084 c-7 -20 22 -45 44 -37 8 3 13 15 11 27 -4 27 -45 35 -55
10z"/>
<path d="M1814 4055 c-4 -9 -2 -21 4 -27 16 -16 47 -5 47 17 0 26 -42 34 -51
10z"/>
<path d="M3207 4033 c-13 -12 -7 -41 10 -47 21 -8 48 17 40 38 -6 16 -38 22
-50 9z"/>
<path d="M1670 3975 c0 -20 5 -25 25 -25 20 0 25 5 25 25 0 20 -5 25 -25 25
-20 0 -25 -5 -25 -25z"/>
<path d="M3344 3955 c-9 -23 3 -45 26 -45 25 0 37 25 20 45 -16 19 -39 19 -46
0z"/>
<path d="M1537 3913 c-12 -11 -7 -41 7 -46 21 -8 50 17 43 37 -6 16 -38 22
-50 9z"/>
<path d="M3474 3865 c-4 -9 0 -23 9 -32 21 -21 49 -9 45 19 -4 28 -45 38 -54
13z"/>
<path d="M1413 3823 c-15 -6 -17 -39 -3 -48 20 -12 51 6 48 28 -3 22 -22 30
-45 20z"/>
<path d="M3604 3765 c-8 -21 2 -45 19 -45 8 0 20 7 27 15 10 12 10 18 0 30 -7
8 -19 15 -27 15 -7 0 -16 -7 -19 -15z"/>
<path d="M2733 3651 c-17 -42 -38 -92 -47 -113 l-16 -36 29 -10 c20 -7 28 -7
28 2 0 6 12 38 27 71 15 33 27 61 26 63 0 1 6 17 14 36 15 35 11 49 -14 58
-12 4 -24 -13 -47 -71z"/>
<path d="M1283 3704 c-3 -8 2 -23 11 -32 15 -15 17 -15 32 0 21 21 11 48 -16
48 -11 0 -23 -7 -27 -16z"/>
<path d="M2155 3680 c-11 -5 -15 -9 -9 -9 6 -1 16 -13 22 -28 6 -16 22 -59 37
-96 14 -38 27 -78 28 -88 1 -13 6 -17 17 -13 8 3 23 9 32 11 14 4 15 9 7 25
-6 10 -25 60 -43 111 -35 96 -46 107 -91 87z"/>
<path d="M3714 3655 c-9 -23 3 -45 26 -45 25 0 37 25 20 45 -16 19 -39 19 -46
0z"/>
<path d="M2047 3643 c-12 -3 -15 -8 -9 -16 5 -7 27 -59 47 -117 21 -58 39
-106 40 -108 1 -1 17 4 35 12 18 7 28 15 23 17 -6 2 -25 42 -42 89 -34 89 -56
131 -69 129 -4 -1 -15 -3 -25 -6z"/>
<path d="M2824 3598 c-1 -18 -10 -55 -20 -81 -19 -48 -19 -49 1 -63 18 -14 21
-11 42 37 29 65 30 114 4 129 -27 14 -26 14 -27 -22z"/>
<path d="M1181 3592 c-12 -23 1 -45 25 -40 23 4 31 37 12 49 -19 13 -26 11
-37 -9z"/>
<path d="M1930 3580 c0 -13 7 -20 20 -20 13 0 20 7 20 20 0 13 -7 20 -20 20
-13 0 -20 -7 -20 -20z"/>
<path d="M2933 3545 c-25 -18 -47 -77 -38 -104 3 -10 14 -26 25 -36 20 -18 20
-17 20 13 0 45 36 121 62 132 21 8 19 9 -12 9 -20 1 -45 -6 -57 -14z"/>
<path d="M3030 3517 c0 -47 -34 -115 -63 -127 -18 -7 -15 -9 19 -9 49 -1 82
28 90 81 5 28 1 40 -20 64 l-25 29 -1 -38z"/>
<path d="M3821 3536 c-17 -20 -3 -46 25 -46 26 0 33 27 12 48 -15 15 -23 15
-37 -2z"/>
<path d="M1950 3523 c0 -4 13 -43 29 -85 16 -44 24 -78 18 -78 -6 0 -8 -2 -6
-5 3 -2 20 1 37 7 35 14 35 10 -1 103 -19 51 -27 60 -50 63 -15 2 -27 0 -27
-5z"/>
<path d="M1881 3471 c7 -20 15 -28 25 -24 23 9 13 47 -13 51 -21 3 -22 1 -12
-27z"/>
<path d="M3135 3491 c3 -5 -4 -33 -15 -61 -11 -28 -20 -59 -20 -70 0 -21 45
-60 69 -59 11 0 9 3 -6 9 -29 12 -29 17 2 93 l26 62 -22 18 c-23 18 -44 23
-34 8z"/>
<path d="M1087 3473 c-13 -12 -7 -44 9 -50 20 -7 45 22 37 43 -5 14 -35 19
-46 7z"/>
<path d="M1775 3460 c-11 -5 -15 -9 -9 -9 11 -1 64 -125 64 -149 0 -6 2 -12 4
-12 10 0 70 29 61 30 -6 0 -22 32 -35 70 -13 39 -27 70 -31 70 -4 0 -13 2 -21
4 -7 3 -22 1 -33 -4z"/>
<path d="M3244 3452 c5 -9 -20 -83 -43 -122 -5 -10 -4 -22 4 -33 24 -33 33
-24 76 85 l19 48 -31 16 c-17 8 -28 11 -25 6z"/>
<path d="M1710 3441 c0 -18 12 -41 21 -41 15 0 10 37 -6 44 -8 3 -15 1 -15 -3z"/>
<path d="M1659 3412 l-27 -3 24 -24 c15 -15 24 -36 24 -56 0 -31 0 -32 20 -14
42 38 14 104 -41 97z"/>
<path d="M3911 3402 c-12 -22 3 -42 31 -42 23 0 25 45 2 54 -22 8 -22 8 -33
-12z"/>
<path d="M1590 3380 c-25 -25 -26 -54 -1 -79 12 -12 16 -23 10 -34 -12 -20 -2
-45 19 -49 10 -2 44 5 76 15 46 15 63 17 77 9 16 -10 17 -9 10 10 -17 46 -29
46 -155 10 -13 -3 -17 -1 -14 9 3 8 18 17 34 20 16 4 21 7 12 8 -21 1 -39 33
-40 72 -1 34 -2 35 -28 9z"/>
<path d="M3342 3388 c-20 -20 -14 -47 20 -94 24 -34 29 -47 20 -56 -20 -20
-13 -29 21 -26 46 4 49 43 7 102 -32 45 -33 66 -2 66 15 0 15 2 2 10 -21 13
-54 12 -68 -2z"/>
<path d="M3445 3343 c9 -30 11 -32 23 -16 16 23 15 26 -11 39 -22 10 -23 9
-12 -23z"/>
<path d="M1000 3335 c-17 -20 -5 -45 20 -45 11 0 23 7 26 15 6 15 -11 45 -26
45 -4 0 -13 -7 -20 -15z"/>
<path d="M2385 3299 c-71 -27 -193 -72 -270 -100 -212 -78 -227 -83 -415 -152
l-175 -65 -3 -499 -2 -500 157 -61 c87 -34 246 -95 353 -137 107 -42 256 -100
331 -129 l136 -53 279 102 c154 56 356 130 449 164 94 34 189 69 213 78 l42
16 0 496 0 497 -117 49 c-117 48 -528 216 -737 301 -59 24 -109 44 -110 43 0
-1 -59 -23 -131 -50z m344 -68 c108 -44 257 -105 331 -136 74 -31 192 -79 263
-107 l127 -51 0 -478 0 -478 -32 -10 c-18 -5 -114 -39 -213 -76 -99 -37 -191
-70 -205 -75 -14 -5 -106 -39 -205 -75 -99 -37 -208 -76 -242 -88 l-61 -20
-104 41 c-56 22 -168 66 -248 97 -80 31 -235 91 -345 134 -110 43 -210 82
-222 86 l-23 6 0 478 0 479 28 11 c15 6 106 39 202 74 96 36 252 92 345 127
94 34 215 79 270 100 55 21 109 39 119 39 11 1 108 -35 215 -78z"/>
<path d="M2070 3121 c0 -5 10 -22 23 -38 60 -74 210 -289 211 -302 3 -52 -50
8 -260 286 -12 15 -24 25 -28 22 -3 -3 48 -80 114 -171 114 -158 139 -203 105
-196 -8 2 -73 76 -144 166 -71 89 -132 159 -135 154 -2 -4 51 -82 120 -172 68
-90 124 -169 124 -177 0 -40 -46 1 -160 147 -69 88 -128 160 -132 160 -9 0 1
-16 121 -195 113 -168 162 -238 176 -247 5 -4 33 -8 61 -8 l51 0 45 -73 45
-73 -25 -30 c-14 -16 -64 -72 -112 -124 -48 -52 -106 -115 -129 -140 -94 -104
-127 -215 -76 -265 49 -50 134 -21 209 70 25 31 85 119 132 196 48 76 90 139
93 139 4 0 28 -37 55 -82 168 -283 255 -368 351 -344 27 7 55 52 55 88 0 50
-91 196 -159 258 -62 55 -212 232 -207 242 3 7 23 40 44 73 35 55 42 60 78 63
79 5 77 3 229 228 81 118 145 218 142 220 -2 3 -62 -67 -133 -156 -120 -150
-144 -174 -159 -151 -5 8 72 115 203 283 24 31 42 62 40 68 -3 11 -83 -84
-213 -254 -46 -60 -73 -77 -82 -51 -1 6 51 84 117 175 112 153 141 199 106
171 -8 -7 -67 -81 -131 -166 -64 -85 -123 -155 -131 -155 -24 0 -15 33 24 85
53 70 187 257 197 274 28 47 -34 -22 -297 -330 -51 -60 -57 -83 -38 -149 10
-34 8 -37 -43 -88 l-53 -53 -48 56 -47 55 12 54 c11 49 10 57 -7 79 -32 42
-327 387 -330 387 -2 0 -4 -4 -4 -9z"/>
<path d="M1630 2555 l0 -25 200 0 200 0 0 25 0 25 -200 0 -200 0 0 -25z"/>
<path d="M2970 2555 l0 -25 195 0 195 0 0 25 0 25 -195 0 -195 0 0 -25z"/>
<path d="M1580 2475 l0 -25 255 0 255 0 0 25 0 25 -255 0 -255 0 0 -25z"/>
<path d="M2910 2475 l0 -25 255 0 255 0 0 25 0 25 -255 0 -255 0 0 -25z"/>
<path d="M1630 2395 l0 -25 200 0 200 0 0 25 0 25 -200 0 -200 0 0 -25z"/>
<path d="M2970 2395 l0 -25 195 0 195 0 0 25 0 25 -195 0 -195 0 0 -25z"/>
<path d="M3506 3289 c-35 -42 -35 -92 0 -124 29 -27 55 -35 30 -9 -20 19 -20
48 -1 67 8 8 12 17 9 20 -9 9 28 66 45 70 9 3 0 5 -21 6 -29 1 -41 -5 -62 -30z"/>
<path d="M3604 3264 c-10 -42 -9 -46 10 -54 12 -4 24 -6 29 -3 14 8 7 70 -11
86 -17 15 -18 13 -28 -29z"/>
<path d="M3292 3283 c-16 -29 -15 -32 8 -30 22 1 22 3 11 32 -8 19 -8 19 -19
-2z"/>
<path d="M3991 3266 c-17 -20 -2 -48 23 -44 24 3 34 37 14 49 -18 12 -24 11
-37 -5z"/>
<path d="M932 3198 c-16 -16 -15 -33 3 -48 12 -10 18 -10 30 0 20 17 19 37 -3
49 -13 7 -23 6 -30 -1z"/>
<path d="M1624 3185 c-8 -20 4 -35 26 -35 17 0 18 3 8 25 -13 28 -26 32 -34
10z"/>
<path d="M3599 3153 c-13 -16 -12 -17 4 -4 16 13 21 21 13 21 -2 0 -10 -8 -17
-17z"/>
<path d="M4057 3123 c-13 -12 -7 -41 10 -47 9 -4 23 -1 30 7 8 7 11 21 7 30
-6 17 -35 23 -47 10z"/>
<path d="M870 3045 c-18 -21 -5 -47 22 -43 26 3 37 36 16 49 -18 12 -24 11
-38 -6z"/>
<path d="M4103 2964 c-3 -8 2 -23 11 -32 15 -15 17 -15 32 0 21 21 11 48 -16
48 -11 0 -23 -7 -27 -16z"/>
<path d="M824 2885 c-9 -23 4 -47 23 -43 11 2 19 14 21 31 3 22 -1 27 -18 27
-11 0 -23 -7 -26 -15z"/>
<path d="M4144 2816 c-9 -24 4 -48 23 -44 12 2 18 12 18 28 0 29 -32 41 -41
16z"/>
<path d="M803 2743 c-7 -2 -13 -16 -13 -29 0 -19 5 -24 24 -24 28 0 42 26 25
46 -12 15 -16 16 -36 7z"/>
<path d="M4164 2655 c-8 -21 2 -45 19 -45 20 0 40 27 33 45 -7 19 -45 20 -52
0z"/>
<path d="M781 2577 c-17 -21 -3 -49 23 -45 15 2 21 10 21 28 0 28 -26 38 -44
17z"/>
<path d="M4172 2483 c2 -20 9 -28 23 -28 14 0 21 8 23 28 3 23 0 27 -23 27
-23 0 -26 -4 -23 -27z"/>
<path d="M777 2416 c-10 -26 4 -47 27 -44 15 2 21 10 21 28 0 29 -38 41 -48
16z"/>
<path d="M4164 2335 c-9 -23 3 -45 26 -45 25 0 37 25 20 45 -16 19 -39 19 -46
0z"/>
<path d="M794 2256 c-9 -24 4 -48 23 -44 12 2 18 12 18 28 0 29 -32 41 -41 16z"/>
<path d="M4144 2176 c-9 -24 4 -48 23 -44 12 2 18 12 18 28 0 29 -32 41 -41
16z"/>
<path d="M833 2113 c-17 -6 -17 -50 0 -56 22 -8 39 8 35 33 -3 25 -14 32 -35
23z"/>
<path d="M4110 2025 c-17 -20 -5 -45 20 -45 11 0 23 7 26 15 6 15 -11 45 -26
45 -4 0 -13 -7 -20 -15z"/>
<path d="M864 1945 c-4 -9 0 -23 9 -32 21 -21 49 -9 45 19 -4 28 -45 38 -54
13z"/>
<path d="M4057 1874 c-4 -4 -7 -16 -7 -26 0 -15 6 -19 28 -16 19 2 27 9 27 23
0 20 -33 33 -48 19z"/>
<path d="M923 1794 c-3 -8 2 -23 11 -32 14 -15 18 -15 31 -1 9 9 13 23 9 32
-8 21 -43 22 -51 1z"/>
<path d="M3991 1727 c-17 -21 -3 -49 23 -45 15 2 21 10 21 28 0 28 -26 38 -44
17z"/>
<path d="M994 1655 c-4 -9 0 -23 8 -31 20 -20 50 -7 46 20 -4 26 -45 35 -54
11z"/>
<path d="M3910 1585 c-11 -13 -11 -19 3 -32 21 -21 49 -9 45 19 -4 28 -30 35
-48 13z"/>
<path d="M1087 1534 c-4 -4 -7 -18 -7 -31 0 -18 5 -23 26 -23 22 0 25 4 22 27
-3 27 -26 41 -41 27z"/>
<path d="M1790 1416 l0 -76 33 0 c42 0 77 35 77 77 0 37 -26 62 -74 70 l-36 6
0 -77z m63 53 c28 -15 37 -28 37 -56 0 -30 -34 -63 -65 -63 -24 0 -25 2 -25
65 0 70 8 78 53 54z"/>
<path d="M1970 1415 l0 -75 43 2 42 1 -37 4 c-34 4 -38 7 -38 33 0 26 4 29 38
33 l37 4 -37 1 c-35 2 -38 4 -38 31 0 27 4 30 38 34 l37 4 -42 1 -43 2 0 -75z"/>
<path d="M2136 1477 c-26 -19 -13 -54 25 -62 41 -9 63 -33 48 -51 -14 -17 -61
-18 -78 -1 -10 10 -11 9 -6 -5 10 -26 81 -25 95 1 15 30 2 50 -41 61 -21 6
-41 15 -44 21 -9 14 12 37 38 42 21 4 21 4 1 6 -11 0 -28 -5 -38 -12z"/>
<path d="M2290 1416 l0 -76 33 0 c42 0 77 35 77 77 0 37 -26 62 -74 70 l-36 6
0 -77z m88 37 c30 -40 -3 -103 -53 -103 -24 0 -25 3 -25 58 0 32 3 62 7 66 11
11 56 -3 71 -21z"/>
<path d="M2470 1415 l0 -75 43 2 42 1 -37 4 c-34 4 -38 7 -38 33 0 26 4 29 38
33 l37 4 -37 1 c-35 2 -38 4 -38 31 0 27 4 30 38 34 l37 4 -42 1 -43 2 0 -75z"/>
<path d="M2728 1477 c6 -7 13 -42 15 -77 l3 -65 2 78 c2 65 0 77 -14 77 -12 0
-14 -3 -6 -13z"/>
<path d="M2826 1474 c-23 -22 -20 -50 9 -72 21 -17 23 -21 10 -32 -8 -7 -15
-18 -15 -24 1 -17 80 77 80 95 0 20 -31 49 -53 49 -8 0 -23 -7 -31 -16z m58
-10 c9 -8 16 -19 16 -23 0 -14 -25 -31 -46 -31 -27 0 -41 34 -24 55 16 19 35
19 54 -1z"/>
<path d="M2980 1483 c51 -8 51 -9 20 -78 -16 -36 -25 -65 -21 -65 5 0 16 17
24 38 9 20 23 54 31 75 l16 37 -47 -1 c-27 -1 -37 -4 -23 -6z"/>
<path d="M3145 1435 c-19 -30 -35 -57 -35 -60 0 -3 18 -5 40 -5 31 0 40 -4 41
-17 0 -14 2 -15 6 -3 3 8 11 18 17 22 8 5 7 8 -1 8 -9 0 -13 18 -13 55 0 30
-5 55 -10 55 -6 0 -26 -25 -45 -55z m41 -41 c-5 -14 -56 -20 -56 -7 0 4 12 25
28 47 l27 40 3 -33 c2 -18 1 -39 -2 -47z"/>
<path d="M3816 1454 c-4 -10 -1 -24 7 -31 19 -19 49 -5 45 21 -4 27 -43 34
-52 10z"/>
<path d="M1176 1394 c-9 -22 17 -49 39 -40 10 3 15 15 13 28 -4 29 -42 37 -52
12z"/>
<path d="M3714 1335 c-8 -21 2 -45 19 -45 20 0 40 27 33 45 -7 19 -45 20 -52
0z"/>
<path d="M1292 1288 c-17 -17 -15 -36 7 -47 25 -14 50 13 35 37 -14 21 -27 25
-42 10z"/>
<path d="M3601 1222 c-18 -34 24 -57 49 -27 10 12 10 18 0 30 -17 20 -37 19
-49 -3z"/>
<path d="M1412 1181 c-21 -13 -10 -46 16 -49 27 -4 40 22 22 43 -14 17 -20 18
-38 6z"/>
<path d="M3480 1126 c-18 -22 -5 -48 22 -44 17 2 23 10 23 28 0 29 -26 38 -45
16z"/>
<path d="M1543 1093 c-18 -6 -16 -38 2 -53 12 -10 18 -10 30 0 8 7 15 18 15
26 0 16 -30 33 -47 27z"/>
<path d="M3344 1035 c-8 -21 2 -45 19 -45 21 0 38 25 31 44 -8 20 -43 21 -50
1z"/>
<path d="M1670 986 c0 -13 6 -26 13 -29 22 -7 37 4 37 29 0 19 -5 24 -25 24
-20 0 -25 -5 -25 -24z"/>
<path d="M3204 955 c-4 -9 -2 -21 4 -27 16 -16 47 -5 47 17 0 26 -42 34 -51
10z"/>
<path d="M1813 924 c-3 -8 2 -23 11 -32 15 -15 17 -15 32 0 21 21 11 48 -16
48 -11 0 -23 -7 -27 -16z"/>
<path d="M3053 894 c-3 -8 -1 -20 5 -26 16 -16 47 -5 50 20 3 18 -1 22 -23 22
-14 0 -28 -7 -32 -16z"/>
<path d="M1964 875 c-4 -8 -3 -22 0 -31 8 -21 50 -14 54 10 6 31 -43 50 -54
21z"/>
<path d="M2910 855 c-18 -21 -5 -47 22 -43 26 3 37 36 16 49 -18 12 -24 11
-38 -6z"/>
<path d="M2121 837 c-17 -21 -3 -49 23 -45 15 2 21 10 21 28 0 28 -26 38 -44
17z"/>
<path d="M2744 815 c-8 -21 4 -35 31 -35 24 0 35 16 28 38 -6 17 -52 15 -59
-3z"/>
<path d="M2277 813 c-12 -11 -7 -41 7 -46 21 -8 50 17 43 37 -6 16 -38 22 -50
9z"/>
<path d="M2603 813 c-7 -3 -13 -16 -13 -29 0 -19 5 -24 24 -24 20 0 36 16 36
35 0 9 -36 22 -47 18z"/>
<path d="M2434 795 c-8 -21 2 -45 19 -45 21 0 38 25 31 44 -8 20 -43 21 -50 1z"/>
</g>
</svg>
